<svg width="232" height="36" viewBox="0 0 232 36" fill="none" xmlns="http://www.w3.org/2000/svg">
<path d="M1.25732 13.8156L13.7965 13.8181L21.4211 13.8194V6.26569L1.25732 13.8156Z" fill="#EB7F00"/>
<path d="M21.4209 6.26568V32.9339L30.9439 2.69885L21.4209 6.26568Z" fill="#0177B0"/>
<path d="M21.421 13.8194L13.7964 13.8181L21.421 32.9339V13.8194Z" fill="#1E0B3A"/>
<path d="M1.25732 13.8156L15.7517 18.7229L13.7965 13.8181L1.25732 13.8156Z" fill="#A32100"/>
<path d="M47.4489 25.9139C47.3383 26.0245 47.1541 26.1624 46.8965 26.3281C46.6385 26.4939 46.3027 26.6596 45.8884 26.8254C45.4742 26.9909 44.9675 27.1334 44.3694 27.2535C43.7708 27.3729 43.0852 27.4329 42.3119 27.4329C40.8203 27.4329 39.5314 27.1934 38.4452 26.715C37.3585 26.2365 36.461 25.5686 35.7523 24.7126C35.0433 23.8563 34.5233 22.8439 34.1919 21.6744C33.8605 20.5053 33.6948 19.2211 33.6948 17.8216C33.6948 16.4226 33.8743 15.1288 34.2334 13.9412C34.5924 12.7536 35.1309 11.7275 35.8489 10.8617C36.5671 9.99651 37.4647 9.31975 38.5419 8.83165C39.619 8.34412 40.8847 8.09979 42.3394 8.09979C43.0576 8.09979 43.7066 8.16444 44.2866 8.2931C44.8666 8.42203 45.3728 8.57407 45.8057 8.74882C46.2381 8.92404 46.5972 9.1078 46.8828 9.3012C47.168 9.4945 47.3844 9.656 47.5319 9.78447C47.6976 9.93214 47.8401 10.1069 47.96 10.3092C48.0796 10.5121 48.1395 10.733 48.1395 10.9721C48.1395 11.3407 48.0014 11.7087 47.7252 12.0769C47.4491 12.4454 47.1452 12.786 46.8137 13.0988C46.5928 12.8779 46.3443 12.6526 46.0681 12.4222C45.7919 12.1921 45.4834 11.9898 45.1429 11.8146C44.802 11.6398 44.4153 11.4926 43.9828 11.3727C43.55 11.2531 43.0667 11.1931 42.5329 11.1931C41.5938 11.1931 40.8068 11.3821 40.1715 11.7593C39.5363 12.1369 39.0253 12.6293 38.6387 13.2369C38.252 13.8446 37.9758 14.5397 37.81 15.3221C37.6444 16.1049 37.5615 16.9012 37.5615 17.7112C37.5615 18.5768 37.6444 19.4053 37.81 20.1968C37.9757 20.9885 38.2609 21.6884 38.6663 22.2958C39.071 22.9034 39.6006 23.3914 40.2543 23.7595C40.9076 24.1281 41.7224 24.312 42.6986 24.312C43.2138 24.312 43.6881 24.2477 44.1209 24.1188C44.5533 23.99 44.9356 23.8333 45.2671 23.6489C45.5985 23.4653 45.8885 23.2721 46.137 23.0693C46.3856 22.8667 46.5928 22.692 46.7585 22.5444C46.869 22.6735 46.9976 22.8302 47.1451 23.014C47.2935 23.1998 47.4318 23.3934 47.5594 23.594C47.688 23.7968 47.7985 23.9992 47.8908 24.2014C47.9827 24.4044 48.0288 24.5882 48.0288 24.7537C48.0288 24.9934 47.9827 25.1958 47.8908 25.3614C47.7984 25.5272 47.6512 25.7115 47.4489 25.9139ZM61.682 23.7957C61.682 25.2591 61.8947 26.3243 62.321 26.9911C61.9876 27.1205 61.6773 27.2133 61.3902 27.2688C61.1028 27.3245 60.802 27.3521 60.4872 27.3521C59.8204 27.3521 59.3155 27.2225 58.973 26.9632C58.6301 26.7041 58.4125 26.3336 58.3201 25.8518C57.9123 26.2783 57.3752 26.6393 56.7085 26.9357C56.0417 27.2315 55.2263 27.3801 54.2634 27.3801C53.7632 27.3801 53.2632 27.3108 52.763 27.1727C52.2628 27.0336 51.8088 26.8078 51.4014 26.4943C50.9938 26.1801 50.6605 25.76 50.4012 25.2337C50.1416 24.7074 50.0122 24.0659 50.0122 23.309C50.0122 22.3673 50.2389 21.6007 50.6929 21.0102C51.1467 20.419 51.7163 19.9529 52.4018 19.6112C53.0869 19.2698 53.828 19.0349 54.6247 18.9053C55.4209 18.7759 56.1529 18.6931 56.8196 18.6557C57.0421 18.6374 57.2595 18.6278 57.4726 18.6278H58.07V18.1221C58.07 17.4101 57.8799 16.9043 57.5004 16.6048C57.1204 16.3052 56.5044 16.155 55.6526 16.155C54.856 16.155 54.1474 16.2848 53.5271 16.5439C52.9063 16.8036 52.2997 17.0997 51.7072 17.4331C51.4475 17.1183 51.239 16.7711 51.082 16.3912C50.9245 16.0118 50.8458 15.7292 50.8458 15.5437C50.8458 15.2846 50.989 15.0345 51.2765 14.7935C51.5635 14.5531 51.9572 14.3351 52.4574 14.1406C52.9576 13.9461 53.5315 13.7889 54.1802 13.6683C54.8283 13.5479 55.5138 13.4877 56.2363 13.4877C57.2365 13.4877 58.0839 13.5897 58.7785 13.7933C59.4732 13.9974 60.0381 14.3121 60.4735 14.7379C60.9085 15.1643 61.2189 15.6966 61.4042 16.3356C61.5892 16.9747 61.6821 17.7206 61.6821 18.5723L61.682 23.7957ZM58.1254 20.5727H57.7365C57.6066 20.5727 57.4768 20.5824 57.3475 20.6006C56.8842 20.6379 56.4257 20.6934 55.9722 20.7671C55.518 20.8414 55.1151 20.9711 54.7636 21.1562C54.4114 21.3416 54.1244 21.5826 53.9022 21.8786C53.6799 22.1751 53.5687 22.555 53.5687 23.0179C53.5687 23.5366 53.7168 23.9763 54.0132 24.3376C54.3093 24.6989 54.8095 24.8795 55.5137 24.8795C55.8653 24.8795 56.1989 24.8335 56.514 24.7403C56.8287 24.6481 57.1065 24.5276 57.3475 24.3794C57.588 24.2312 57.7782 24.0692 57.9171 23.893C58.056 23.7172 58.1255 23.5553 58.1255 23.4069L58.1254 20.5727ZM68.6001 15.099C68.8954 14.7474 69.3573 14.3906 69.985 14.0293C70.6128 13.6681 71.4068 13.4875 72.3671 13.4875C73.0505 13.4875 73.7013 13.6033 74.3201 13.8348C74.9383 14.0666 75.4879 14.4418 75.968 14.9601C76.4482 15.4789 76.8313 16.1644 77.1177 17.0162C77.4039 17.8684 77.5471 18.9152 77.5471 20.1559C77.5471 21.6007 77.3807 22.7911 77.0484 23.7263C76.7158 24.662 76.2868 25.403 75.7608 25.9493C75.2344 26.4957 74.6478 26.8801 74.0019 27.1022C73.3554 27.3245 72.709 27.4358 72.063 27.4358C71.5274 27.4358 71.0609 27.3755 70.6642 27.2552C70.267 27.1345 69.9301 27.0007 69.6531 26.8523C69.3761 26.7042 69.1639 26.5563 69.0163 26.4077C68.8686 26.2596 68.7762 26.1575 68.7393 26.1018V32.9321H64.9605V13.8764C65.0534 13.8582 65.1655 13.8396 65.2964 13.8209C65.4086 13.8028 65.5392 13.7887 65.6885 13.7792C65.8378 13.7701 66.0151 13.7654 66.2203 13.7654C66.8359 13.7654 67.3586 13.8674 67.7879 14.071C68.2171 14.2751 68.4881 14.6175 68.6001 15.099ZM73.6015 20.2392C73.6015 19.6835 73.5554 19.1652 73.4634 18.6833C73.3714 18.2019 73.2195 17.785 73.0076 17.433C72.7957 17.0813 72.51 16.8078 72.151 16.6132C71.7914 16.4188 71.3544 16.3217 70.8389 16.3217C70.0654 16.3217 69.5267 16.4701 69.2226 16.7661C68.9188 17.0626 68.7669 17.387 68.7669 17.7387V23.6292C68.914 23.7776 69.1761 23.9533 69.5538 24.1571C69.9316 24.361 70.3687 24.4625 70.8663 24.4625C71.8057 24.4625 72.4964 24.0924 72.9385 23.3513C73.3806 22.6105 73.6015 21.5729 73.6015 20.2392ZM80.4636 25.0184C80.3337 24.6481 80.2504 24.2589 80.2135 23.8513C80.1762 23.444 80.158 23.0366 80.158 22.6286V9.73642C80.2874 9.71824 80.4263 9.69959 80.5747 9.68086C80.7039 9.66268 80.843 9.64885 80.9914 9.63921C81.1395 9.63012 81.2876 9.62539 81.4359 9.62539C81.7321 9.62539 82.0287 9.65321 82.3252 9.70868C82.6212 9.76434 82.8899 9.87546 83.131 10.0421C83.3716 10.2087 83.566 10.4359 83.7144 10.7228C83.8625 11.0102 83.9366 11.3854 83.9366 11.8481V13.8207H87.8267V16.6272H83.9366V22.5524C83.9366 23.8445 84.4645 24.4904 85.5205 24.4904C85.7798 24.4904 86.0249 24.4489 86.2568 24.3653C86.4882 24.282 86.6966 24.1895 86.882 24.0876C87.0671 23.9857 87.2293 23.8793 87.3682 23.768C87.5072 23.6568 87.6044 23.5736 87.6599 23.5181C87.9378 23.9258 88.1505 24.2788 88.299 24.5766C88.447 24.8748 88.5212 25.1547 88.5212 25.4162C88.5212 25.6595 88.4242 25.898 88.2295 26.1316C88.0348 26.3652 87.7614 26.5806 87.4097 26.7767C87.0578 26.9729 86.6319 27.1318 86.1317 27.2534C85.6316 27.375 85.0849 27.4359 84.4924 27.4359C83.3436 27.4359 82.45 27.2135 81.811 26.769C81.172 26.3243 80.7226 25.7407 80.4636 25.0184ZM97.3972 24.6571C97.8617 24.6571 98.2707 24.6064 98.6242 24.5043C98.9771 24.4028 99.293 24.2777 99.572 24.1294C99.8506 23.9814 100.093 23.8192 100.297 23.6432C100.501 23.4673 100.687 23.3053 100.855 23.1568C101.078 23.4345 101.31 23.7914 101.552 24.2264C101.793 24.662 101.914 25.0184 101.914 25.2961C101.914 25.7038 101.682 26.0743 101.22 26.4077C100.831 26.7042 100.279 26.9589 99.5665 27.1716C98.8531 27.3845 98.0147 27.4912 97.0519 27.4912C96.1808 27.4912 95.3243 27.3801 94.4818 27.1578C93.6388 26.9356 92.8884 26.5465 92.2312 25.9907C91.5733 25.4353 91.0407 24.6898 90.6333 23.7542C90.2258 22.8188 90.0221 21.6382 90.0221 20.2115C90.0221 19.0444 90.2028 18.0399 90.5638 17.1969C90.9251 16.3542 91.4066 15.6549 92.009 15.0991C92.6106 14.5434 93.2913 14.1362 94.051 13.8765C94.8103 13.6174 95.5885 13.4876 96.3851 13.4876C97.4223 13.4876 98.3021 13.65 99.0245 13.9738C99.7471 14.2981 100.335 14.7335 100.789 15.2797C101.243 15.8262 101.571 16.4514 101.775 17.1552C101.979 17.8593 102.081 18.6 102.081 19.378V19.7669C102.081 19.9155 102.076 20.0726 102.067 20.2392C102.058 20.4061 102.048 20.5684 102.039 20.7255C102.03 20.8833 102.016 21.0081 101.998 21.1007H93.8009C93.8752 22.1195 94.1912 22.9669 94.7487 23.6432C95.3059 24.3195 96.1889 24.6571 97.3972 24.6571ZM98.6633 19.0167C98.6633 18.1276 98.4908 17.4052 98.1462 16.8495C97.8015 16.2939 97.1818 16.0159 96.2881 16.0159C95.5238 16.0159 94.9138 16.28 94.4576 16.8078C94.0008 17.3358 93.7731 18.072 93.7731 19.0166L98.6633 19.0167ZM108.657 15.1693C108.768 15.004 108.916 14.8203 109.101 14.6179C109.286 14.4157 109.513 14.2319 109.782 14.0666C110.05 13.9013 110.347 13.7631 110.671 13.6529C110.995 13.5427 111.343 13.4876 111.713 13.4876C111.936 13.4876 112.172 13.5062 112.422 13.5427C112.672 13.5796 112.903 13.6486 113.116 13.7493C113.329 13.8505 113.501 13.9881 113.63 14.1627C113.76 14.3372 113.825 14.553 113.825 14.81C113.825 15.2142 113.723 15.6783 113.519 16.2023C113.315 16.7268 113.112 17.174 112.908 17.5442C112.593 17.285 112.278 17.0858 111.963 16.9469C111.648 16.808 111.278 16.7385 110.852 16.7385C110.278 16.7385 109.796 16.9057 109.407 17.2399C109.018 17.5742 108.823 17.9736 108.823 18.4381V27.4327H105.045V13.8764C105.137 13.8582 105.248 13.8396 105.378 13.8209C105.489 13.8028 105.619 13.7887 105.767 13.7792C105.915 13.7701 106.091 13.7654 106.295 13.7654C106.888 13.7654 107.402 13.8803 107.837 14.1097C108.272 14.3388 108.546 14.6922 108.657 15.1693ZM119.4 15.1693C119.512 15.004 119.66 14.8203 119.845 14.6179C120.03 14.4157 120.257 14.2319 120.526 14.0666C120.794 13.9013 121.09 13.7631 121.415 13.6529C121.739 13.5427 122.086 13.4876 122.457 13.4876C122.679 13.4876 122.915 13.5062 123.165 13.5427C123.415 13.5796 123.647 13.6486 123.86 13.7493C124.073 13.8505 124.244 13.9881 124.374 14.1627C124.503 14.3372 124.569 14.553 124.569 14.81C124.569 15.2142 124.466 15.6783 124.263 16.2023C124.059 16.7268 123.855 17.174 123.652 17.5442C123.337 17.285 123.021 17.0858 122.707 16.9469C122.392 16.808 122.021 16.7385 121.595 16.7385C121.021 16.7385 120.54 16.9057 120.151 17.2399C119.762 17.5742 119.567 17.9736 119.567 18.4381V27.4327H115.788V13.8764C115.881 13.8582 115.992 13.8396 116.122 13.8209C116.233 13.8028 116.363 13.7887 116.511 13.7792C116.659 13.7701 116.835 13.7654 117.039 13.7654C117.631 13.7654 118.145 13.8803 118.581 14.1097C119.016 14.3388 119.289 14.6922 119.4 15.1693ZM137.433 23.7957C137.433 25.2591 137.646 26.3243 138.072 26.9911C137.739 27.1205 137.428 27.2133 137.142 27.2688C136.854 27.3245 136.553 27.3521 136.239 27.3521C135.572 27.3521 135.067 27.2225 134.724 26.9632C134.381 26.7041 134.164 26.3336 134.071 25.8518C133.664 26.2783 133.127 26.6393 132.46 26.9357C131.793 27.2315 130.977 27.3801 130.015 27.3801C129.514 27.3801 129.014 27.3108 128.514 27.1727C128.014 27.0336 127.56 26.8078 127.153 26.4943C126.745 26.1801 126.412 25.76 126.152 25.2337C125.893 24.7074 125.764 24.0659 125.764 23.309C125.764 22.3673 125.99 21.6007 126.444 21.0102C126.898 20.419 127.468 19.9529 128.153 19.6112C128.838 19.2698 129.579 19.0349 130.376 18.9053C131.172 18.7759 131.904 18.6931 132.571 18.6557C132.793 18.6374 133.011 18.6278 133.224 18.6278H133.821V18.1221C133.821 17.4101 133.631 16.9043 133.252 16.6048C132.872 16.3052 132.256 16.155 131.404 16.155C130.607 16.155 129.899 16.2848 129.278 16.5439C128.658 16.8036 128.051 17.0997 127.458 17.4331C127.199 17.1183 126.99 16.7711 126.833 16.3912C126.676 16.0118 126.597 15.7292 126.597 15.5437C126.597 15.2846 126.74 15.0345 127.028 14.7935C127.315 14.5531 127.709 14.3351 128.209 14.1406C128.709 13.9461 129.283 13.7889 129.931 13.6683C130.579 13.5479 131.265 13.4877 131.987 13.4877C132.988 13.4877 133.835 13.5897 134.53 13.7933C135.224 13.9974 135.789 14.3121 136.225 14.7379C136.66 15.1643 136.97 15.6966 137.155 16.3356C137.34 16.9747 137.433 17.7206 137.433 18.5723V23.7957ZM133.877 20.5727H133.488C133.358 20.5727 133.228 20.5824 133.099 20.6006C132.636 20.6379 132.177 20.6934 131.723 20.7671C131.269 20.8414 130.866 20.9711 130.515 21.1562C130.163 21.3416 129.876 21.5826 129.653 21.8786C129.431 22.1751 129.32 22.555 129.32 23.0179C129.32 23.5366 129.468 23.9763 129.764 24.3376C130.061 24.6989 130.561 24.8795 131.265 24.8795C131.617 24.8795 131.95 24.8335 132.265 24.7403C132.58 24.6481 132.858 24.5276 133.099 24.3794C133.339 24.2312 133.53 24.0692 133.668 23.893C133.807 23.7172 133.877 23.5553 133.877 23.4069L133.877 20.5727Z" fill="#1E0B3A"/>
<rect x="152.068" y="0.5" width="79" height="35" rx="17.5" fill="white"/>
<rect x="152.068" y="0.5" width="79" height="35" rx="17.5" stroke="#E6E4D6"/>
<path fill-rule="evenodd" clip-rule="evenodd" d="M175.561 7.25201C175.847 7.25201 176.107 7.41409 176.234 7.67009L179.145 13.5693L185.655 14.5128C185.937 14.5537 186.172 14.7517 186.261 15.0234C186.349 15.295 186.275 15.5932 186.07 15.7924L181.353 20.3842L182.465 26.8682C182.514 27.1497 182.398 27.4342 182.167 27.602C181.936 27.7698 181.629 27.7917 181.377 27.6585L175.568 24.5976L169.745 27.6589C169.493 27.7917 169.186 27.7696 168.955 27.6018C168.724 27.434 168.609 27.1496 168.657 26.8682L169.769 20.3842L165.052 15.7924C164.847 15.5932 164.774 15.295 164.862 15.0234C164.95 14.7517 165.185 14.5537 165.468 14.5128L171.977 13.5693L174.889 7.67009C175.015 7.41409 175.276 7.25201 175.561 7.25201Z" fill="#7E3DD4"/>
<path d="M197.102 25.192C196.472 25.192 195.87 25.0747 195.294 24.84C194.728 24.6053 194.238 24.2747 193.822 23.848C193.416 23.4107 193.139 22.8933 192.99 22.296L194.878 21.624C195.059 22.168 195.352 22.5733 195.758 22.84C196.163 23.096 196.611 23.224 197.102 23.224C197.507 23.224 197.864 23.1387 198.174 22.968C198.494 22.7867 198.739 22.5413 198.91 22.232C199.08 21.912 199.166 21.544 199.166 21.128C199.166 20.712 199.075 20.3493 198.894 20.04C198.723 19.7307 198.483 19.4907 198.174 19.32C197.864 19.1387 197.507 19.048 197.102 19.048C196.686 19.048 196.307 19.1387 195.966 19.32C195.635 19.5013 195.395 19.7627 195.246 20.104L193.47 19.704L194.414 13.08H200.91V14.92H195.278L196.094 13.976L195.422 18.968L194.798 18.456C195.096 18.0187 195.459 17.6987 195.886 17.496C196.323 17.2933 196.851 17.192 197.47 17.192C198.259 17.192 198.942 17.3627 199.518 17.704C200.104 18.0453 200.558 18.5093 200.878 19.096C201.198 19.6827 201.358 20.36 201.358 21.128C201.358 21.896 201.171 22.5893 200.798 23.208C200.424 23.8267 199.918 24.312 199.278 24.664C198.638 25.016 197.912 25.192 197.102 25.192ZM204.161 25V22.76H206.273V25H204.161ZM213.904 25.192C212.955 25.192 212.123 24.936 211.408 24.424C210.694 23.912 210.134 23.192 209.728 22.264C209.334 21.336 209.136 20.2587 209.136 19.032C209.136 17.7947 209.334 16.7173 209.728 15.8C210.123 14.8827 210.678 14.168 211.392 13.656C212.107 13.144 212.939 12.888 213.888 12.888C214.859 12.888 215.696 13.144 216.4 13.656C217.115 14.168 217.675 14.888 218.08 15.816C218.486 16.7333 218.688 17.8053 218.688 19.032C218.688 20.2587 218.486 21.336 218.08 22.264C217.686 23.1813 217.131 23.9013 216.416 24.424C215.702 24.936 214.864 25.192 213.904 25.192ZM213.92 23.208C214.464 23.208 214.928 23.0427 215.312 22.712C215.696 22.3707 215.99 21.8907 216.192 21.272C216.406 20.6427 216.512 19.896 216.512 19.032C216.512 18.168 216.406 17.4267 216.192 16.808C215.99 16.1787 215.691 15.6987 215.296 15.368C214.912 15.0373 214.443 14.872 213.888 14.872C213.355 14.872 212.896 15.0373 212.512 15.368C212.128 15.6987 211.83 16.1787 211.616 16.808C211.414 17.4267 211.312 18.168 211.312 19.032C211.312 19.8853 211.414 20.6267 211.616 21.256C211.83 21.8747 212.128 22.3547 212.512 22.696C212.907 23.0373 213.376 23.208 213.92 23.208Z" fill="#1E0B3A"/>
</svg>
